<?xml version="1.0" ?><svg enable-background="new 0 0 515.91 728.5" height="512" id="Layer_1" version="1.1" viewBox="0 0 512.00003 512" width="512" xml:space="preserve" xmlns="http://www.w3.org/2000/svg" xmlns:cc="http://creativecommons.org/ns#" xmlns:dc="http://purl.org/dc/elements/1.1/" xmlns:inkscape="http://www.inkscape.org/namespaces/inkscape" xmlns:rdf="http://www.w3.org/1999/02/22-rdf-syntax-ns#" xmlns:sodipodi="http://sodipodi.sourceforge.net/DTD/sodipodi-0.dtd" xmlns:svg="http://www.w3.org/2000/svg"><defs id="defs7"/><g id="g10401" transform="translate(-2552.7656,-17312)"><g id="g10180" transform="translate(2663.3111,32)"><path d="m -89.450636,17620.955 c 41.275324,113.914 159.085202,181.924 278.373866,160.719 l -8.7028,-49.258 c -95.43296,16.967 -189.669935,-37.412 -222.691044,-128.545 l -46.980022,17.084 z" id="path10184" style="fill:#00a1f1;fill-opacity:1;fill-rule:nonzero;stroke:none"/><path d="m -100.6905,17579.007 49.258223,-8.702 c -17.962866,-101.085 44.1206394,-200.846 145.130203,-227.912 11.456424,-3.069 22.951824,-5.062 34.372764,-6.072 l -4.35435,-49.809 c -14.27645,1.262 -28.635296,3.759 -42.956385,7.596 -126.264634,33.833 -203.908635,158.541 -181.450455,284.899 z" id="path10186" style="fill:#333333;fill-opacity:1;fill-rule:nonzero;stroke:none"/><path d="m 213.77861,17723.424 17.09235,47.01 c 120.66976,-43.723 189.83877,-173.319 156.00465,-299.59 -9.77802,-36.492 -27.15602,-68.908 -49.95917,-96.036 l -38.29214,32.125 c 18.24275,21.702 32.14341,47.654 39.96615,76.849 27.06538,101.01 -28.28862,204.656 -124.81184,239.642 z" id="path10188" style="fill:#333333;fill-opacity:1;fill-rule:nonzero;stroke:none"/><path d="m 162.833,17336.289 c 41.2061,3.596 79.99251,19.977 111.1648,46.095 l 32.14056,-38.305 c -38.95591,-32.636 -87.44098,-53.108 -138.92939,-57.609 l -4.37597,49.819 z" id="path10190" style="fill:#00a1f1;fill-opacity:1;fill-rule:nonzero;stroke:none"/></g><g id="g10397"><path d="m 2711.5625,17899.25 c -1.364,0.129 -2.6926,0.724 -3.7187,1.75 l -83.5,83.531 c -4.4683,4.468 -4.4683,11.657 0,16.125 4.4681,4.468 11.6567,4.468 16.125,0 23.8985,-23.898 47.789,-47.82 71.6874,-71.718 20.2222,20.22 40.4363,40.46 60.6563,60.687 l 16.125,-16.156 -72.4687,-72.469 c -1.1731,-1.173 -2.7481,-1.75 -4.3126,-1.75 -0.1954,0 -0.3988,-0.02 -0.5937,0 z m 193.2187,0 c -1.364,0.129 -2.6923,0.724 -3.7187,1.75 l -72.4687,72.469 16.125,16.125 c 20.2174,-20.217 40.4439,-40.445 60.6562,-60.656 23.8988,23.898 47.7887,47.82 71.6875,71.718 4.468,4.468 11.6569,4.468 16.125,0 4.4682,-4.468 4.4682,-11.657 0,-16.125 l -83.5,-83.531 c -1.1729,-1.173 -2.7483,-1.75 -4.3125,-1.75 -0.1955,0 -0.3989,-0.02 -0.5938,0 z m -192.625,38.719 c -22.4502,22.45 -44.8932,44.925 -67.3437,67.375 l 0,49.687 c 0,3.123 2.5013,5.594 5.625,5.594 l 51.375,0 66.4687,-66.5 c -18.7096,-18.717 -37.4131,-37.445 -56.125,-56.156 z m 193.2188,0 c -18.7114,18.71 -37.4154,37.439 -56.125,56.156 l 66.4688,66.5 51.375,0 c 3.1237,0 5.625,-2.471 5.625,-5.594 l 0,-49.687 c -22.4512,-22.451 -44.8927,-44.924 -67.3438,-67.375 z" id="path10355" style="font-size:medium;font-style:normal;font-variant:normal;font-weight:normal;font-stretch:normal;text-indent:0;text-align:start;text-decoration:none;line-height:normal;letter-spacing:normal;word-spacing:normal;text-transform:none;direction:ltr;block-progression:tb;writing-mode:lr-tb;text-anchor:start;baseline-shift:baseline;color:#000000;fill:#333333;fill-opacity:1;fill-rule:nonzero;stroke:none;stroke-width:16;marker:none;visibility:visible;display:inline;overflow:visible;enable-background:accumulate;font-family:Sans;-inkscape-font-specification:Sans" transform="translate(0,-448)"/><path d="m 2808.7637,17527.732 c -1.5642,0 -3.1318,0.589 -4.3047,1.762 l -83.5239,83.523 c -4.4682,4.468 -4.4682,11.661 0,16.129 4.4682,4.468 11.6608,4.468 16.1289,0 23.8987,-23.898 47.8011,-47.801 71.6997,-71.699 23.8989,23.898 47.801,47.801 71.6998,71.699 4.468,4.468 11.6608,4.468 16.129,0 4.4681,-4.468 4.4681,-11.661 0,-16.129 l -83.5239,-83.523 c -1.173,-1.173 -2.7406,-1.762 -4.3049,-1.762 z m 0,38.744 c -22.4504,22.45 -44.8885,44.916 -67.339,67.366 l 0,49.674 c 0,3.122 2.495,5.618 5.6186,5.618 l 123.4409,0 c 3.1239,0 5.6186,-2.496 5.6186,-5.618 l 0,-49.674 c -22.4511,-22.451 -44.8879,-44.915 -67.3391,-67.366 z" id="path10216" style="font-size:medium;font-style:normal;font-variant:normal;font-weight:normal;font-stretch:normal;text-indent:0;text-align:start;text-decoration:none;line-height:normal;letter-spacing:normal;word-spacing:normal;text-transform:none;direction:ltr;block-progression:tb;writing-mode:lr-tb;text-anchor:start;baseline-shift:baseline;color:#000000;fill:#00a1f1;fill-opacity:1;fill-rule:nonzero;stroke:none;stroke-width:16;marker:none;visibility:visible;display:inline;overflow:visible;enable-background:accumulate;font-family:Sans;-inkscape-font-specification:Sans"/></g></g></svg>