<?xml version="1.0" encoding="UTF-8"?>
<svg enable-background="new 0 0 515.91 728.5" height="512" id="Layer_1" version="1.1" viewBox="0 0 512.00003 512" width="512" xml:space="preserve" xmlns="http://www.w3.org/2000/svg" xmlns:cc="http://creativecommons.org/ns#" xmlns:dc="http://purl.org/dc/elements/1.1/" xmlns:inkscape="http://www.inkscape.org/namespaces/inkscape" xmlns:rdf="http://www.w3.org/1999/02/22-rdf-syntax-ns#" xmlns:sodipodi="http://sodipodi.sourceforge.net/DTD/sodipodi-0.dtd" xmlns:svg="http://www.w3.org/2000/svg">
  <defs id="defs7"/>
  <g id="g9312" transform="translate(2525.5741,-17329.436)">
    <g id="g9218" transform="matrix(-0.25875941,-0.96570322,0.96570322,-0.25875941,-5022.4765,21690.217)">
      <path d="m 3231.8928,3473.4066 c -120.7427,10.3883 -216.9489,106.6038 -227.3437,227.3437 l 49.8437,4.3437 c 8.3133,-96.5947 85.2476,-173.564 181.8437,-181.875 l -4.3437,-49.8124 z"
        id="path9221" style="fill:#00a1f1;fill-opacity:1;fill-rule:nonzero;stroke:none"/>
      <path d="m 3275.3303,3473.4066 -4.3438,49.8437 c 102.3131,8.8139 182.625,94.6218 182.625,199.2187 0,11.8633 -1.0504,23.4855 -3.0312,34.7813 l 49.25,8.6875 c 2.4761,-14.12 3.7812,-28.6391 3.7812,-43.4688 0,-130.7489 -100.3865,-238.0489 -228.2812,-249.0624 z"
        id="path9223" style="fill:#333333;fill-opacity:1;fill-rule:nonzero;stroke:none"/>
      <path d="m 3054.3928,3739.844 -49.8437,4.3438 c 11.0046,127.904 118.3073,228.2812 249.0624,228.2812 37.7881,0 73.6056,-8.3979 105.7188,-23.4062 l -21.125,-45.3125 c -25.6897,12.0071 -54.3621,18.7187 -84.5938,18.7187 -104.5967,0 -190.4048,-80.3121 -199.2187,-182.625 z"
        id="path9255" style="fill:#333333;fill-opacity:1;fill-rule:nonzero;stroke:none"/>
      <path d="m 3441.6115,3790.844 c -14.1416,38.8803 -40.0092,72.113 -73.3124,95.4688 l 28.6874,40.9688 c 41.6162,-29.1884 73.947,-70.7324 91.625,-119.3126 l -47,-17.125 z"
        id="path9257" style="fill:#00a1f1;fill-opacity:1;fill-rule:nonzero;stroke:none"/>
    </g>
    <g id="g9307" transform="matrix(0.97569956,0,0,0.97569956,-55.239105,431.88541)">
      <path d="m -2269.4726,17548.817 c -41.3203,0 -74.8471,32.007 -74.8471,71.431 0,10.968 2.4991,21.365 7.1147,30.633 20.0882,34.009 57.6887,54.425 67.7324,115.673 17.1582,-61.248 47.6166,-81.664 67.6807,-115.673 4.6276,-9.268 7.1406,-19.641 7.1406,-30.633 0,-39.424 -33.5377,-71.431 -74.8213,-71.431 z"
        id="path9213" style="fill:#00a1f1;fill-opacity:1"/>
      <path d="m -2180.9375,17905 c -41.3203,0 -74.8437,32.014 -74.8437,71.438 0,2.446 0.1305,4.866 0.375,7.25 38.3339,5.099 71.3674,38.495 74.5937,77.468 1.5924,13.199 -0.9903,25.891 -6,37.75 2.4219,7.231 4.4429,15.111 5.875,23.844 17.1582,-61.248 47.6234,-81.678 67.6875,-115.688 4.6276,-9.268 7.125,-19.633 7.125,-30.624 0,-39.424 -33.5289,-71.438 -74.8125,-71.438 z"
        id="path9277" style="fill:#333333;fill-opacity:1" transform="translate(0,-448)"/>
      <path d="m -2358,17905 c -41.3203,0 -74.8438,32.014 -74.8438,71.438 0,10.968 2.5094,21.356 7.125,30.624 20.0881,34.01 57.6751,54.44 67.7188,115.688 2.1418,-7.645 4.4898,-14.646 7,-21.125 0,0 0,-0.02 0,-0.03 -4.0635,-8.667 -6.7718,-17.889 -7.2812,-27.75 -3.8397,-43.68 32.2729,-84.246 74.7187,-90.25 0.2385,-2.351 0.375,-4.741 0.375,-7.156 0,-39.424 -33.5289,-71.438 -74.8125,-71.438 z"
        id="path9279" style="fill:#333333;fill-opacity:1" transform="translate(0,-448)"/>
    </g>
  </g>
</svg>
