<?xml version="1.0" encoding="UTF-8"?>
<!DOCTYPE svg  PUBLIC '-//W3C//DTD SVG 1.1//EN'  'http://www.w3.org/Graphics/SVG/1.1/DTD/svg11.dtd'>
<svg enable-background="new 0 0 512 512" height="512px" id="Building" version="1.1" viewBox="0 0 512 512" width="512px" xml:space="preserve" xmlns="http://www.w3.org/2000/svg" xmlns:xlink="http://www.w3.org/1999/xlink">
  <polygon clip-rule="evenodd" fill="#BDC3C7" fill-rule="evenodd" points="256,495.869 256,295.881 463.996,175.869 463.996,375.877   256,495.869 "/>
  <polygon clip-rule="evenodd" fill="#ECF0F1" fill-rule="evenodd" points="47.984,175.869 256,295.881 256,495.869 47.984,375.877   47.984,175.869 "/>
  <polygon clip-rule="evenodd" fill="#998675" fill-rule="evenodd" points="47.984,183.881 256,63.869 463.996,183.881 256,303.873   47.984,183.881 "/>
  <polygon clip-rule="evenodd" fill="#998675" fill-rule="evenodd" points="47.984,175.869 256,55.877 463.996,175.869 256,295.881   47.984,175.869 "/>
  <polygon clip-rule="evenodd" fill="#736357" fill-rule="evenodd" points="332.262,99.881 463.996,175.869 256,295.881 256,143.865   332.262,99.881 "/>
  <polygon clip-rule="evenodd" fill="#ECF0F1" fill-rule="evenodd" points="256,183.881 256,258.955 111.996,175.869 111.996,100.795   256,183.881 "/>
  <polygon clip-rule="evenodd" fill="#BDC3C7" fill-rule="evenodd" points="256,183.881 399.988,100.795 399.988,175.869 256,258.955   256,183.881 "/>
  <polygon clip-rule="evenodd" fill="#998675" fill-rule="evenodd" points="256,23.873 401.598,107.873 256,191.873 110.383,107.873   256,23.873 "/>
  <polygon clip-rule="evenodd" fill="#736357" fill-rule="evenodd" points="256,15.881 401.598,99.881 256,183.881 110.383,99.881   256,15.881 "/>
  <polygon clip-rule="evenodd" fill="#998675" fill-rule="evenodd" points="256,183.881 110.383,99.881 124.637,91.666 256,47.869   256,183.881 "/>
  <polygon clip-rule="evenodd" fill="#534741" fill-rule="evenodd" points="256,47.869 256,15.881 387.344,91.666 256,47.869 "/>
  <polygon clip-rule="evenodd" fill="#464646" fill-rule="evenodd" points="383.984,422.033 335.996,449.729 335.996,399.869   383.984,372.178 383.984,422.033 "/>
  <path clip-rule="evenodd" d="M407.996,381.713v-29.832l23.996-13.848v29.832L407.996,381.713  L407.996,381.713z M407.996,303.873l23.996-13.848v21.84l-23.996,13.848V303.873L407.996,303.873z M407.996,255.865l23.996-13.828  v21.836l-23.996,13.852V255.865L407.996,255.865z M368,327.869l23.996-13.848v21.855L368,349.725V327.869L368,327.869z M368,279.877  l23.996-13.848v21.84L368,301.717V279.877L368,279.877z M359.988,159.869l23.996-13.848v21.855l-23.996,13.848V159.869  L359.988,159.869z M327.984,351.881l24.012-13.848v21.84l-24.012,13.848V351.881L327.984,351.881z M327.984,303.873l24.012-13.848  v21.84l-24.012,13.848V303.873L327.984,303.873z M319.992,183.881l23.996-13.848v21.84l-23.996,13.848V183.881L319.992,183.881z   M287.988,423.865L312,410.018v29.852l-24.012,13.848V423.865L287.988,423.865z M287.988,375.877L312,362.029v21.84l-24.012,13.848  V375.877L287.988,375.877z M287.988,327.869L312,314.021v21.855l-24.012,13.848V327.869L287.988,327.869z M279.996,207.877  l23.992-13.848v21.84l-23.992,13.848V207.877L279.996,207.877z" fill="#252525" fill-rule="evenodd"/>
  <path d="M79.988,359.873v-21.84l23.996,13.848v21.84L79.988,359.873L79.988,359.873z M79.988,311.865v-21.84  l23.996,13.848v21.84L79.988,311.865L79.988,311.865z M119.988,335.877v-21.855L144,327.869v21.855L119.988,335.877L119.988,335.877  z M159.984,359.873v-21.84l24.012,13.848v21.84L159.984,359.873L159.984,359.873z M200,383.869v-21.84l23.996,13.848v21.84  L200,383.869L200,383.869z M119.988,383.869v-21.84L144,375.877v21.84L119.988,383.869L119.988,383.869z M159.984,407.881v-21.859  l24.012,13.848v21.859L159.984,407.881L159.984,407.881z M200,431.877v-21.859l23.996,13.848v21.859L200,431.877L200,431.877z   M79.988,263.873v-21.836l23.996,13.828v21.859L79.988,263.873L79.988,263.873z M119.988,287.869v-21.84L144,279.877v21.84  L119.988,287.869L119.988,287.869z M159.984,311.865v-21.84l24.012,13.848v21.84L159.984,311.865L159.984,311.865z M200,335.877  v-21.855l23.996,13.848v21.855L200,335.877L200,335.877z M127.996,167.877v-21.855l23.996,13.848v21.855L127.996,167.877  L127.996,167.877z M167.996,191.873v-21.84l23.992,13.848v21.84L167.996,191.873L167.996,191.873z M207.992,215.869v-21.84  l23.996,13.848v21.84L207.992,215.869L207.992,215.869z" fill="#464646"/>
  <path clip-rule="evenodd" d="M256,202.955l-144.004-83.086v-19.074L256,183.881V202.955  L256,202.955z M256,311.865L47.984,191.873v-16.004L256,295.881V311.865L256,311.865z" fill="#736357" fill-rule="evenodd"/>
  <path clip-rule="evenodd" d="M256,183.881l143.988-83.086v19.074L256,202.955V183.881  L256,183.881z M463.996,191.873L256,311.865v-15.984l207.996-120.012V191.873L463.996,191.873z" fill="#534741" fill-rule="evenodd"/>
</svg>
