<?xml version="1.0" encoding="utf-8"?>
<!-- Generator: Adobe Illustrator 19.1.0, SVG Export Plug-In . SVG Version: 6.00 Build 0)  -->
<svg version="1.1" id="Layer_1" xmlns="http://www.w3.org/2000/svg" xmlns:xlink="http://www.w3.org/1999/xlink" x="0px" y="0px"
	 viewBox="0 0 620.3 157.2" style="enable-background:new 0 0 620.3 157.2;" xml:space="preserve">
<style type="text/css">
	.st0{fill:#FFFFFF;}
	.st1{fill:none;}
	.st2{fill:#FFCF59;}
	.st3{fill:#D0DDF1;}
	.st4{fill:#EF4B4C;}
	.st5{fill:#24B46F;}
</style>
<g>
	<path class="st0" d="M230.9,85.7c0,8.6-3.7,14-11.2,16.2l13.6,18.9h-11.1l-12.4-17.4h-11.5v17.4h-8.8V68.9h19.3
		c7.9,0,13.6,1.3,17,4C229.2,75.5,230.9,79.8,230.9,85.7z M219.3,93.1c1.8-1.5,2.7-4,2.7-7.4c0-3.4-0.9-5.7-2.7-7
		c-1.8-1.3-5.1-1.9-9.8-1.9h-11.1v18.6h10.9C214.1,95.4,217.5,94.6,219.3,93.1z"/>
	<path class="st0" d="M279.1,104.6h-30.9c0.2,2.9,1.5,5.2,3.9,6.9c2.4,1.8,5.2,2.6,8.3,2.6c4.9,0,8.7-1.6,11.3-4.7l4.8,5.2
		c-4.3,4.4-9.8,6.6-16.6,6.6c-5.5,0-10.3-1.8-14.1-5.5c-3.9-3.7-5.8-8.6-5.8-14.8c0-6.2,2-11.1,5.9-14.8c4-3.7,8.6-5.5,14-5.5
		c5.4,0,9.9,1.6,13.7,4.9c3.8,3.2,5.6,7.7,5.6,13.4V104.6z M248.2,98.1h22.6c0-3.3-1-5.9-3.1-7.6s-4.6-2.7-7.7-2.7s-5.8,0.9-8.2,2.8
		C249.4,92.4,248.2,94.9,248.2,98.1z"/>
	<path class="st0" d="M320.2,120.7h-7.6v-5.3c-3.3,3.9-7.6,5.9-13.1,5.9c-4.1,0-7.5-1.2-10.2-3.5c-2.7-2.3-4-5.4-4-9.3
		c0-3.9,1.4-6.8,4.3-8.7c2.9-1.9,6.8-2.9,11.7-2.9H312v-1.5c0-5.2-2.9-7.9-8.8-7.9c-3.7,0-7.5,1.3-11.4,4l-3.7-5.2
		c4.8-3.8,10.2-5.7,16.3-5.7c4.7,0,8.4,1.2,11.4,3.5c2.9,2.4,4.4,6,4.4,11.1V120.7z M311.9,106v-3.3h-9.4c-6,0-9,1.9-9,5.6
		c0,1.9,0.7,3.4,2.2,4.4c1.5,1,3.5,1.5,6.2,1.5c2.6,0,5-0.7,6.9-2.2C310.9,110.6,311.9,108.6,311.9,106z"/>
	<path class="st0" d="M340.1,120.7h-8.3V65.7h8.3V120.7z"/>
	<path class="st0" d="M362.4,87.9v20c0,1.9,0.5,3.4,1.5,4.5c1,1.1,2.4,1.7,4.2,1.7s3.5-0.9,5.1-2.6l3.4,5.9
		c-2.9,2.6-6.1,3.9-9.7,3.9c-3.5,0-6.6-1.2-9.1-3.7c-2.5-2.4-3.7-5.8-3.7-9.9V87.9h-5v-6.7h5V68.9h8.3v12.4h10.4v6.7H362.4z"/>
	<path class="st0" d="M388.1,136.5c-3.6,0-6.9-1.3-9.8-3.9l3.8-6.8c1.7,1.6,3.5,2.4,5.4,2.4s3.4-0.7,4.5-2c1.2-1.3,1.7-2.8,1.7-4.4
		c0-0.7-5.3-14.2-16-40.6h8.9l11.8,29.1l11.8-29.1h8.9l-19.1,46.9c-1.1,2.6-2.8,4.6-4.9,6.1C393.1,135.7,390.7,136.5,388.1,136.5z"
		/>
	<path class="st0" d="M435.7,120.7h-8.8V68.9h13.7l15.7,32.6l15.7-32.6h13.6v51.9h-8.8V80.2l-18.1,36h-4.9l-18-36V120.7z"/>
	<path class="st0" d="M530.7,120.7h-7.6v-5.3c-3.3,3.9-7.6,5.9-13.1,5.9c-4.1,0-7.5-1.2-10.2-3.5c-2.7-2.3-4-5.4-4-9.3
		c0-3.9,1.4-6.8,4.3-8.7c2.9-1.9,6.8-2.9,11.7-2.9h10.8v-1.5c0-5.2-2.9-7.9-8.8-7.9c-3.7,0-7.5,1.3-11.4,4l-3.7-5.2
		c4.8-3.8,10.2-5.7,16.3-5.7c4.7,0,8.4,1.2,11.4,3.5c2.9,2.4,4.4,6,4.4,11.1V120.7z M522.4,106v-3.3H513c-6,0-9,1.9-9,5.6
		c0,1.9,0.7,3.4,2.2,4.4c1.5,1,3.5,1.5,6.2,1.5c2.6,0,5-0.7,6.9-2.2C521.4,110.6,522.4,108.6,522.4,106z"/>
	<path class="st0" d="M563.4,80.7c5.3,0,9.8,1.8,13.6,5.5c3.8,3.7,5.6,8.5,5.6,14.6c0,6.1-1.9,11-5.6,14.8
		c-3.7,3.8-8.1,5.7-13.1,5.7s-9.4-2.2-13.4-6.5v20.3h-8.3V81.3h8.3v6.9C553.9,83.2,558.1,80.7,563.4,80.7z M550.4,101.1
		c0,3.8,1.1,6.8,3.4,9.2c2.3,2.4,5,3.6,8.3,3.6s6.1-1.2,8.5-3.6c2.4-2.4,3.6-5.5,3.6-9.2s-1.2-6.9-3.6-9.4c-2.4-2.5-5.2-3.7-8.5-3.7
		c-3.3,0-6.1,1.2-8.4,3.7C551.6,94.2,550.4,97.3,550.4,101.1z"/>
	<path class="st0" d="M620.3,108.9c0,3.8-1.4,6.8-4.1,9c-2.7,2.3-6.2,3.4-10.5,3.4c-2.9,0-5.9-0.5-8.9-1.6c-3.1-1-5.8-2.5-8.2-4.4
		l4-6.5c4.6,3.5,9.1,5.2,13.4,5.2c1.9,0,3.4-0.4,4.5-1.3c1.1-0.9,1.6-2,1.6-3.3c0-2-2.6-3.8-7.9-5.3c-0.4-0.1-0.7-0.2-0.9-0.3
		c-8.2-2.2-12.3-5.9-12.3-11.1c0-3.7,1.4-6.6,4.3-8.8c2.8-2.2,6.5-3.3,11.1-3.3c4.6,0,8.9,1.3,12.9,4l-3.1,6.2
		c-3.2-2.1-6.7-3.2-10.5-3.2c-2,0-3.6,0.4-4.8,1.1c-1.2,0.7-1.9,1.8-1.9,3.2c0,1.3,0.6,2.2,1.9,2.8c0.9,0.4,2.1,0.9,3.7,1.3
		c1.6,0.4,3,0.8,4.3,1.2c1.2,0.4,2.4,0.8,3.6,1.3c1.2,0.5,2.4,1.2,3.7,2.1C618.9,102.4,620.3,105.2,620.3,108.9z"/>
</g>
<g>
	<g>
		<g>
			<path class="st1" d="M84.9,39.3c0.1,0.1,0.2,0.1,0.2,0.2C85,39.4,84.9,39.4,84.9,39.3z"/>
			<path class="st1" d="M94.4,76c0,0.1-0.1,0.2-0.1,0.3C94.4,76.2,94.4,76.1,94.4,76z"/>
			<path class="st1" d="M95.1,74.2c-0.1,0.3-0.2,0.6-0.3,0.9C94.9,74.8,95,74.5,95.1,74.2z"/>
			<path class="st1" d="M96.6,64.3c0,3.3-0.5,6.5-1.4,9.5C96.1,70.8,96.6,67.6,96.6,64.3c0-9.5-4.1-18.1-10.6-24
				C92.5,46.2,96.6,54.8,96.6,64.3z"/>
			<path class="st2" d="M64.3,0C28.9,0,0,28.8,0,64.3v92.9h31.9v-89v-3.9c0-17.9,14.5-32.4,32.4-32.4c0,0,0,0,0.1,0v-0.1V0z"/>
			<path class="st3" d="M85.1,39.5c0.3,0.3,0.6,0.5,0.9,0.8C85.7,40,85.4,39.7,85.1,39.5z"/>
			<path class="st3" d="M95.2,73.8c0,0.1-0.1,0.2-0.1,0.3C95.1,74.1,95.1,73.9,95.2,73.8z"/>
			<path class="st3" d="M84.9,39.3c-5.6-4.6-12.7-7.4-20.5-7.5v0.1C72.1,31.9,79.3,34.7,84.9,39.3z"/>
			<path class="st3" d="M94.8,75.1c-0.1,0.3-0.2,0.6-0.3,0.9C94.5,75.7,94.7,75.4,94.8,75.1z"/>
		</g>
		<g>
			<path class="st1" d="M109.5,123.2l-5-8.9c0,0,0,0,0,0L109.5,123.2z"/>
			<path class="st4" d="M128.5,64.3C128.5,28.8,99.7,0,64.3,0v31.8c7.8,0,15,2.8,20.5,7.5c0.1,0.1,0.2,0.1,0.2,0.2
				c0.3,0.3,0.6,0.5,0.9,0.8c6.5,5.9,10.7,14.5,10.7,24c0,3.3-0.5,6.6-1.5,9.6c0,0.1-0.1,0.2-0.1,0.3c-0.1,0.3-0.2,0.6-0.3,0.9
				c-0.1,0.3-0.2,0.6-0.3,0.9c0,0.1-0.1,0.2-0.1,0.3c-1.4,3.5-3.4,6.7-5.9,9.5l16.1,28.5C119.1,102.5,128.5,84.5,128.5,64.3z"/>
		</g>
	</g>
	<path class="st5" d="M109.5,123.2l-5.1-8.9c0,0,0,0,0,0L88.4,85.8c-4.2,5.3-7.8,7.6-14.4,9.4c-0.2,0.1-0.4,0.1-0.6,0.1
		c0,0,0,0-0.1,0c-7.2,0.7-11.4,8.6-7.8,14.9l9.7,17.3l16.9,29.6l36.7,0L109.5,123.2z"/>
</g>
</svg>
