<?xml version="1.0" encoding="utf-8"?>
<!-- Generator: Adobe Illustrator 19.1.0, SVG Export Plug-In . SVG Version: 6.00 Build 0)  -->
<svg version="1.1" id="Layer_1" xmlns="http://www.w3.org/2000/svg" xmlns:xlink="http://www.w3.org/1999/xlink" x="0px" y="0px"
	 viewBox="0 0 373.3 260.8" style="enable-background:new 0 0 373.3 260.8;" xml:space="preserve">
<style type="text/css">
	.st0{fill:#FFFFFF;}
	.st1{fill:none;}
	.st2{fill:#FFCF59;}
	.st3{fill:#D0DDF1;}
	.st4{fill:#EF4B4C;}
	.st5{fill:#24B46F;}
</style>
<g>
	<path class="st0" d="M35.9,216.8c0,7.4-3.2,12.1-9.7,14L38,247.1h-9.6L17.6,232h-10v15.1H0v-45h16.7c6.9,0,11.8,1.2,14.7,3.5
		S35.9,211.7,35.9,216.8z M25.8,223.1c1.5-1.3,2.3-3.5,2.3-6.4c0-2.9-0.8-5-2.4-6c-1.6-1.1-4.4-1.6-8.5-1.6H7.6v16.1H17
		C21.3,225.1,24.2,224.5,25.8,223.1z"/>
	<path class="st0" d="M77.6,233.2H50.8c0.2,2.5,1.3,4.5,3.4,6c2.1,1.5,4.5,2.3,7.2,2.3c4.3,0,7.5-1.4,9.8-4.1l4.1,4.5
		c-3.7,3.8-8.5,5.7-14.4,5.7c-4.8,0-8.9-1.6-12.3-4.8c-3.4-3.2-5-7.5-5-12.9c0-5.4,1.7-9.7,5.1-12.8c3.4-3.2,7.5-4.8,12.1-4.8
		c4.7,0,8.6,1.4,11.9,4.2c3.3,2.8,4.9,6.7,4.9,11.6V233.2z M50.8,227.5h19.6c0-2.9-0.9-5.1-2.7-6.6s-4-2.3-6.7-2.3
		c-2.6,0-5,0.8-7.1,2.4C51.9,222.6,50.8,224.8,50.8,227.5z"/>
	<path class="st0" d="M113.3,247.1h-6.6v-4.6c-2.8,3.4-6.6,5.1-11.4,5.1c-3.6,0-6.5-1-8.8-3c-2.3-2-3.5-4.7-3.5-8.1
		c0-3.4,1.2-5.9,3.7-7.6c2.5-1.7,5.9-2.5,10.1-2.5h9.3v-1.3c0-4.5-2.5-6.8-7.6-6.8c-3.2,0-6.5,1.2-9.9,3.5l-3.2-4.5
		c4.2-3.3,8.9-5,14.2-5c4,0,7.3,1,9.9,3.1c2.6,2,3.8,5.2,3.8,9.6V247.1z M106.1,234.4v-2.9H98c-5.2,0-7.8,1.6-7.8,4.9
		c0,1.7,0.6,2.9,1.9,3.8c1.3,0.9,3.1,1.3,5.4,1.3c2.3,0,4.3-0.6,6-1.9C105.2,238.3,106.1,236.6,106.1,234.4z"/>
	<path class="st0" d="M130.5,247.1h-7.2v-47.7h7.2V247.1z"/>
	<path class="st0" d="M149.8,218.7v17.4c0,1.6,0.4,2.9,1.3,3.9c0.9,1,2.1,1.4,3.6,1.4s3-0.8,4.4-2.3l3,5.1c-2.5,2.3-5.3,3.4-8.4,3.4
		c-3.1,0-5.7-1.1-7.8-3.2c-2.2-2.1-3.2-5-3.2-8.6v-17.2h-4.3v-5.8h4.3v-10.7h7.2v10.7h9v5.8H149.8z"/>
	<path class="st0" d="M172.1,260.8c-3.1,0-6-1.1-8.5-3.4l3.3-5.9c1.5,1.4,3.1,2.1,4.7,2.1c1.6,0,2.9-0.6,3.9-1.7
		c1-1.2,1.5-2.4,1.5-3.8c0-0.6-4.6-12.3-13.8-35.2h7.7l10.2,25.2l10.2-25.2h7.7l-16.6,40.7c-1,2.2-2.4,4-4.2,5.3
		C176.4,260.1,174.4,260.8,172.1,260.8z"/>
	<path class="st0" d="M213.4,247.1h-7.6v-45h11.8l13.6,28.2l13.6-28.2h11.8v45h-7.6V212l-15.7,31.2H229L213.4,212V247.1z"/>
	<path class="st0" d="M295.7,247.1h-6.6v-4.6c-2.8,3.4-6.6,5.1-11.4,5.1c-3.6,0-6.5-1-8.8-3c-2.3-2-3.5-4.7-3.5-8.1
		c0-3.4,1.2-5.9,3.7-7.6c2.5-1.7,5.9-2.5,10.1-2.5h9.3v-1.3c0-4.5-2.5-6.8-7.6-6.8c-3.2,0-6.5,1.2-9.9,3.5l-3.2-4.5
		c4.2-3.3,8.9-5,14.2-5c4,0,7.3,1,9.9,3.1c2.6,2,3.8,5.2,3.8,9.6V247.1z M288.5,234.4v-2.9h-8.1c-5.2,0-7.8,1.6-7.8,4.9
		c0,1.7,0.6,2.9,1.9,3.8c1.3,0.9,3.1,1.3,5.4,1.3c2.3,0,4.3-0.6,6-1.9C287.6,238.3,288.5,236.6,288.5,234.4z"/>
	<path class="st0" d="M324.1,212.4c4.6,0,8.5,1.6,11.8,4.8c3.3,3.2,4.9,7.4,4.9,12.7s-1.6,9.6-4.9,12.9c-3.2,3.3-7,5-11.3,5
		s-8.2-1.9-11.6-5.7v17.6h-7.2v-46.7h7.2v6C315.8,214.6,319.5,212.4,324.1,212.4z M312.8,230.1c0,3.3,1,5.9,3,8s4.4,3.1,7.2,3.1
		c2.8,0,5.3-1,7.4-3.1c2.1-2.1,3.2-4.7,3.2-8s-1-6-3.1-8.2c-2.1-2.2-4.5-3.2-7.4-3.2s-5.3,1.1-7.3,3.2
		C313.8,224.1,312.8,226.8,312.8,230.1z"/>
	<path class="st0" d="M373.3,236.9c0,3.3-1.2,5.9-3.5,7.8c-2.4,2-5.4,2.9-9.1,2.9c-2.5,0-5.1-0.5-7.8-1.4c-2.7-0.9-5-2.2-7.1-3.8
		l3.5-5.6c4,3,7.8,4.5,11.6,4.5c1.6,0,2.9-0.4,3.9-1.1c0.9-0.8,1.4-1.7,1.4-2.9c0-1.7-2.3-3.3-6.8-4.6c-0.3-0.1-0.6-0.2-0.8-0.3
		c-7.1-1.9-10.7-5.1-10.7-9.6c0-3.2,1.2-5.7,3.7-7.6c2.5-1.9,5.7-2.9,9.6-2.9c3.9,0,7.7,1.2,11.2,3.5l-2.7,5.3
		c-2.8-1.8-5.8-2.8-9.1-2.8c-1.7,0-3.1,0.3-4.2,0.9c-1.1,0.6-1.6,1.6-1.6,2.8c0,1.1,0.6,1.9,1.7,2.4c0.8,0.4,1.9,0.8,3.2,1.1
		c1.4,0.3,2.6,0.7,3.7,1c1.1,0.3,2.1,0.7,3.1,1.2c1,0.4,2.1,1,3.2,1.8C372.2,231.2,373.3,233.6,373.3,236.9z"/>
</g>
<g>
	<g>
		<g>
			<path class="st1" d="M206.6,39.3c0.1,0.1,0.2,0.1,0.2,0.2C206.7,39.4,206.6,39.4,206.6,39.3z"/>
			<path class="st1" d="M216.1,76c0,0.1-0.1,0.2-0.1,0.3C216,76.2,216.1,76.1,216.1,76z"/>
			<path class="st1" d="M216.8,74.2c-0.1,0.3-0.2,0.6-0.3,0.9C216.6,74.8,216.7,74.5,216.8,74.2z"/>
			<path class="st1" d="M218.3,64.3c0,3.3-0.5,6.5-1.4,9.5C217.8,70.8,218.3,67.6,218.3,64.3c0-9.5-4.1-18.1-10.6-24
				C214.2,46.2,218.3,54.8,218.3,64.3z"/>
			<path class="st2" d="M186,0c-35.5,0-64.3,28.8-64.3,64.3v92.9h31.9v-89v-3.9c0-17.9,14.5-32.4,32.4-32.4c0,0,0,0,0.1,0v-0.1V0z"
				/>
			<path class="st3" d="M206.8,39.5c0.3,0.3,0.6,0.5,0.9,0.8C207.4,40,207.1,39.7,206.8,39.5z"/>
			<path class="st3" d="M216.9,73.8c0,0.1-0.1,0.2-0.1,0.3C216.8,74.1,216.8,73.9,216.9,73.8z"/>
			<path class="st3" d="M206.6,39.3c-5.6-4.6-12.7-7.4-20.5-7.5v0.1C193.8,31.9,201,34.7,206.6,39.3z"/>
			<path class="st3" d="M216.5,75.1c-0.1,0.3-0.2,0.6-0.3,0.9C216.2,75.7,216.3,75.4,216.5,75.1z"/>
		</g>
		<g>
			<path class="st1" d="M231.2,123.2l-5-8.9c0,0,0,0,0,0L231.2,123.2z"/>
			<path class="st4" d="M250.2,64.3C250.2,28.8,221.4,0,186,0v31.8c7.8,0,15,2.8,20.5,7.5c0.1,0.1,0.2,0.1,0.2,0.2
				c0.3,0.3,0.6,0.5,0.9,0.8c6.5,5.9,10.7,14.5,10.7,24c0,3.3-0.5,6.6-1.5,9.6c0,0.1-0.1,0.2-0.1,0.3c-0.1,0.3-0.2,0.6-0.3,0.9
				c-0.1,0.3-0.2,0.6-0.3,0.9c0,0.1-0.1,0.2-0.1,0.3c-1.4,3.5-3.4,6.7-5.9,9.5l16.1,28.5C240.8,102.5,250.2,84.5,250.2,64.3z"/>
		</g>
	</g>
	<path class="st5" d="M231.2,123.2l-5.1-8.9c0,0,0,0,0,0l-16.1-28.5c-4.2,5.3-7.8,7.6-14.4,9.4c-0.2,0.1-0.4,0.1-0.6,0.1
		c0,0,0,0-0.1,0c-7.2,0.7-11.4,8.6-7.8,14.9l9.7,17.3l16.9,29.6l36.7,0L231.2,123.2z"/>
</g>
</svg>
