<?xml version="1.0" standalone="no"?>
<!DOCTYPE svg PUBLIC "-//W3C//DTD SVG 1.1//EN" "http://www.w3.org/Graphics/SVG/1.1/DTD/svg11.dtd" >
<svg xmlns="http://www.w3.org/2000/svg">
<metadata>Generated by IcoMoon</metadata>
<defs>
<font id="icomoon" horiz-adv-x="1024">
<font-face units-per-em="1024" ascent="960" descent="-64" />
<missing-glyph horiz-adv-x="1024" />
<glyph unicode="&#x20;" horiz-adv-x="512" d="" />
<glyph unicode="&#xe600;" glyph-name="add_neighbourhood" d="M724.48 445.44c-120.32 0-215.040 94.72-215.040 215.040s94.72 215.040 215.040 215.040 215.040-94.72 215.040-215.040c0-120.32-97.28-215.040-215.040-215.040zM847.36 691.2h-92.16v92.16h-61.44v-92.16h-92.16v-61.44h92.16v-92.16h61.44v92.16h92.16v61.44zM435.2 663.040c-48.64 0-89.6-40.96-89.6-89.6s40.96-89.6 89.6-89.6c23.040 0 40.96 7.68 56.32 20.48 35.84-53.76 89.6-94.72 153.6-110.080-79.36-171.52-209.92-376.32-209.92-376.32s-266.24 414.72-266.24 563.2c0 145.92 117.76 266.24 266.24 266.24 28.16 0 56.32-5.12 81.92-12.8-40.96-46.080-66.56-104.96-69.12-171.52-2.56 0-7.68 0-12.8 0z" />
<glyph unicode="&#xe601;" glyph-name="add_note" d="M448 660.48v0h-307.2v-583.68h337.92v245.76h245.76v61.44c-153.6 0-276.48 122.88-276.48 276.48zM540.16 76.8l184.32 184.32h-184.32v-184.32zM724.48 875.52c-120.32 0-215.040-94.72-215.040-215.040s94.72-215.040 215.040-215.040c120.32 0 215.040 94.72 215.040 215.040s-94.72 215.040-215.040 215.040zM847.36 629.76h-92.16v-92.16h-61.44v92.16h-92.16v61.44h92.16v92.16h61.44v-92.16h92.16v-61.44z" />
<glyph unicode="&#xe602;" glyph-name="add_project" d="M724.48 445.44c-120.32 0-215.040 94.72-215.040 215.040s94.72 215.040 215.040 215.040c120.32 0 215.040-94.72 215.040-215.040s-94.72-215.040-215.040-215.040zM847.36 691.2h-92.16v92.16h-61.44v-92.16h-92.16v-61.44h92.16v-92.16h61.44v92.16h92.16v61.44zM624.64 401.92c-7.68-15.36-15.36-25.6-25.6-30.72-5.12-17.92-15.36-43.52-35.84-71.68v0c0 0-2.56-2.56-2.56-2.56-2.56-23.040 0-38.4 0-46.080 15.36-7.68 61.44-23.040 97.28-28.16 43.52-7.68 97.28-25.6 130.56-110.080 5.12-12.8 2.56-28.16-5.12-40.96-33.28-46.080-207.36-56.32-348.16-56.32s-314.88 10.24-348.16 56.32c-7.68 12.8-10.24 28.16-5.12 40.96 33.28 81.92 87.040 102.4 130.56 107.52 35.84 5.12 81.92 20.48 97.28 28.16 0 7.68 0 20.48 0 43.52-2.56 2.56-2.56 2.56-2.56 5.12 0 0 0 0 0 0v0c-20.48 28.16-30.72 53.76-35.84 71.68-12.8 10.24-28.16 28.16-38.4 64-5.12 20.48-7.68 46.080 7.68 66.56 0 0 0 0 0 2.56-12.8 133.12 74.24 199.68 125.44 215.040v0 0c20.48 5.12 38.4 7.68 56.32 7.68 5.12 0 7.68 0 10.24 0s7.68 0 12.8 0c5.12 0 7.68 0 12.8 0-5.12-20.48-7.68-46.080-7.68-71.68 0-115.2 71.68-212.48 174.080-250.88z" />
<glyph unicode="&#xe603;" glyph-name="add" d="M906.24 504.32h-337.92v337.92h-112.64v-337.92h-337.92v-112.64h337.92v-337.92h112.64v337.92h337.92z" />
<glyph unicode="&#xe604;" glyph-name="arrow" d="M550.4 110.080c-12.8 12.8-12.8 33.28 0 46.080l261.12 268.8h-645.12c-17.92 0-46.080 5.12-46.080 23.040s28.16 23.040 46.080 23.040h647.68l-263.68 268.8c-12.8 12.8-12.8 33.28 0 46.080s33.28 12.8 43.52 0l299.52-312.32c0 0 2.56 0 2.56-2.56 5.12-5.12 10.24-15.36 10.24-23.040 0 0 0 0 0 0s0 0 0 0c0-7.68-2.56-17.92-10.24-23.040 0 0 0 0-2.56-2.56l-299.52-312.32c-10.24-12.8-30.72-12.8-43.52 0z" />
<glyph unicode="&#xe605;" glyph-name="configuration" d="M512 258.56c-104.96 0-192 84.48-192 192s84.48 192 192 192 192-84.48 192-192-87.040-192-192-192zM906.24 376.32v143.36l-87.040 15.36c-7.68 23.040-15.36 46.080-28.16 66.56l51.2 71.68-102.4 102.4-71.68-51.2c-20.48 12.8-43.52 20.48-66.56 28.16l-15.36 87.040h-143.36l-17.92-84.48c-23.040-7.68-46.080-15.36-66.56-28.16l-71.68 51.2-102.4-102.4 51.2-71.68c-12.8-20.48-20.48-43.52-28.16-66.56l-87.040-15.36v-143.36l87.040-15.36c7.68-23.040 15.36-46.080 28.16-66.56l-51.2-71.68 102.4-102.4 71.68 51.2c20.48-12.8 43.52-20.48 66.56-28.16l15.36-87.040h143.36l15.36 87.040c23.040 7.68 46.080 15.36 66.56 28.16l71.68-51.2 102.4 102.4-51.2 71.68c12.8 20.48 20.48 43.52 28.16 66.56l89.6 12.8z" />
<glyph unicode="&#xe606;" glyph-name="favorites" d="M821.76 821.76c-112.64 53.76-258.56 2.56-309.76-115.2-51.2 117.76-197.12 168.96-309.76 115.2-117.76-58.88-176.64-207.36-81.92-381.44 66.56-125.44 186.88-217.6 391.68-386.56 204.8 168.96 325.12 261.12 391.68 386.56 92.16 174.080 35.84 322.56-81.92 381.44z" />
<glyph unicode="&#xe607;" glyph-name="layers" d="M545.28 171.52l-5.12-2.56c-7.68-2.56-12.8-2.56-20.48-2.56h-7.68c-2.56 0-7.68 0-12.8 2.56h-2.56l-7.68 2.56c-5.12 2.56-151.040 76.8-263.68 135.68-53.76-33.28-94.72-58.88-99.84-61.44-2.56-2.56-5.12-2.56-7.68-7.68-2.56-2.56-2.56-7.68-2.56-12.8 0 0 0 0 0 0 0-2.56 0-2.56 2.56-5.12 0 0 0 0 0 0s0 0 0 0 2.56-2.56 2.56-2.56c0 0 2.56-2.56 2.56-2.56s0 0 0 0c5.12-2.56 378.88-197.12 384-197.12 0 0 0 0 0 0 2.56 0 2.56 0 5.12-2.56 0 0 0 0 2.56 0s5.12 0 5.12 0c0 0 0 0 0 0s2.56 0 2.56 2.56l376.32 225.28c0 0 0 0 2.56 0 0 0 2.56 2.56 2.56 2.56s2.56 2.56 2.56 2.56c0 0 0 0 0 2.56 0 0 0 0 0 2.56 0 0 0 2.56 0 2.56s0 2.56 0 2.56c0 0 0 2.56 0 2.56s0 2.56 0 2.56c0 0 0 0 0 2.56 0 0 0 0 0 2.56 0 0-2.56 2.56-2.56 2.56s-2.56 2.56-2.56 2.56c0 0 0 0-2.56 0l-97.28 51.2-240.64-148.48c-7.68-2.56-12.8-5.12-15.36-5.12zM545.28 373.76l-2.56-2.56c-7.68 0-15.36 0-23.040 0h-7.68c-5.12 0-7.68 0-12.8 2.56h-2.56l-5.12 2.56c-5.12 2.56-151.040 76.8-263.68 135.68-53.76-33.28-94.72-58.88-99.84-61.44-2.56-2.56-5.12-2.56-7.68-7.68-2.56-2.56-2.56-7.68-2.56-12.8 0 0 0 0 0 0 0-2.56 0-2.56 2.56-5.12 0 0 0 0 0 0s0 0 0 0 2.56-2.56 2.56-2.56c0 0 2.56-2.56 2.56-2.56s0 0 0 0c5.12-2.56 378.88-197.12 384-197.12 0 0 0 0 0 0 2.56 0 2.56 0 5.12-2.56 0 0 0 0 2.56 0s5.12 0 5.12 0c0 0 0 0 0 0s2.56 0 2.56 2.56l368.64 225.28c0 0 0 0 2.56 0 0 0 2.56 2.56 2.56 2.56s2.56 2.56 2.56 2.56c0 0 0 0 0 2.56 0 0 0 0 0 2.56 0 0 0 2.56 0 2.56s0 2.56 0 2.56c0 0 0 2.56 0 2.56s0 2.56 0 2.56c0 0 0 0 0 2.56 0 0 0 0 0 2.56 0 0-2.56 2.56-2.56 2.56s-2.56 2.56-2.56 2.56c0 0 0 0-2.56 0l-97.28 51.2-240.64-148.48c-2.56-2.56-7.68-5.12-10.24-7.68zM512 880.64c0 0 0 0 0 0-2.56 0-5.12 2.56-5.12 2.56-2.56 0-2.56 0-5.12 0 0 0-2.56 0-2.56 0-2.56 0-2.56 0-5.12-2.56 0 0 0 0-2.56 0 0-5.12-345.6-215.040-363.52-227.84-2.56-2.56-5.12-2.56-7.68-7.68-2.56-2.56-2.56-7.68-2.56-12.8 0 0 0 0 0 0 0-2.56 0-2.56 2.56-5.12 0 0 0 0 0 0s0 0 0 0 2.56-2.56 2.56-2.56c0 0 2.56-2.56 2.56-2.56s0 0 0 0c5.12-2.56 378.88-194.56 384-197.12 0 0 0 0 0 0 2.56 0 2.56 0 5.12-2.56 0 0 0 0 2.56 0s5.12 0 5.12 0c0 0 0 0 0 0s2.56 0 2.56 2.56l368.64 225.28c0 0 0 0 2.56 0 0 0 2.56 2.56 2.56 2.56s2.56 2.56 2.56 2.56c0 0 0 0 0 2.56 0 0 0 0 0 2.56 0 0 0 2.56 0 2.56s0 2.56 0 2.56c0 0 0 2.56 0 2.56s0 2.56 0 2.56c0 0 0 0 0 2.56 0 0 0 0 0 2.56 0 0-2.56 2.56-2.56 2.56s-2.56 2.56-2.56 2.56c0 0 0 0-2.56 0l-381.44 199.68z" />
<glyph unicode="&#xe608;" glyph-name="location" d="M540.16 194.56c-10.24 0-17.92-2.56-28.16-2.56s-17.92 2.56-28.16 2.56c-117.76 12.8-212.48 107.52-225.28 225.28 0 10.24-2.56 17.92-2.56 28.16s2.56 17.92 2.56 28.16c12.8 117.76 107.52 212.48 225.28 225.28 10.24 0 17.92 2.56 28.16 2.56s17.92-2.56 28.16-2.56c117.76-12.8 212.48-107.52 225.28-225.28 0-10.24 2.56-17.92 2.56-28.16s-2.56-17.92-2.56-28.16c-12.8-117.76-107.52-212.48-225.28-225.28zM878.080 476.16h-56.32c-12.8 148.48-133.12 268.8-281.6 281.6v56.32c0 15.36-12.8 28.16-28.16 28.16s-28.16-12.8-28.16-28.16v-56.32c-148.48-12.8-268.8-133.12-281.6-281.6h-56.32c-15.36 0-28.16-12.8-28.16-28.16s12.8-28.16 28.16-28.16h56.32c12.8-148.48 133.12-268.8 281.6-281.6v-56.32c0-15.36 12.8-28.16 28.16-28.16s28.16 12.8 28.16 28.16v56.32c148.48 12.8 268.8 133.12 281.6 281.6h56.32c15.36 0 28.16 12.8 28.16 28.16s-12.8 28.16-28.16 28.16zM678.4 448c0 92.16-74.24 166.4-166.4 166.4s-166.4-74.24-166.4-166.4 74.24-166.4 166.4-166.4c92.16 0 166.4 74.24 166.4 166.4z" />
<glyph unicode="&#xe609;" glyph-name="magnify" d="M880.64 197.12l-140.8 135.68c38.4 53.76 61.44 117.76 61.44 184.32 0 179.2-153.6 325.12-343.040 325.12s-343.040-145.92-343.040-325.12c0-179.2 153.6-325.12 343.040-325.12 51.2 0 102.4 10.24 145.92 30.72l151.040-143.36c15.36-15.36 38.4-23.040 61.44-23.040s46.080 7.68 64 25.6c35.84 28.16 35.84 81.92 0 115.2zM253.44 517.12c0 107.52 92.16 194.56 204.8 194.56s204.8-87.040 204.8-194.56c0-107.52-92.16-194.56-204.8-194.56-112.64-2.56-204.8 87.040-204.8 194.56z" />
<glyph unicode="&#xe60a;" glyph-name="minus" d="M117.76 527.36h788.48v-158.72h-788.48v158.72z" />
<glyph unicode="&#xe60b;" glyph-name="marker" d="M847.36 629.76c0 181.76-143.36 330.24-322.56 330.24s-322.56-148.48-322.56-330.24c0-181.76 322.56-693.76 322.56-693.76s322.56 512 322.56 693.76zM417.28 624.64c0 61.44 48.64 110.080 107.52 110.080s107.52-48.64 107.52-110.080-48.64-110.080-107.52-110.080c-58.88 0-107.52 48.64-107.52 110.080z" />
<glyph unicode="&#xe60c;" glyph-name="note" d="M79.36 880.64v-865.28h501.76v363.52h363.52v501.76h-865.28zM670.72 15.36l273.92 273.92h-273.92v-273.92z" />
<glyph unicode="&#xe60d;" glyph-name="notifications" d="M412.16 151.040c0-53.76 43.52-99.84 99.84-99.84s99.84 43.52 99.84 99.84h-199.68zM512 842.24c-28.16 0-48.64-23.040-48.64-48.64 0-2.56 0-5.12 2.56-5.12-87.040-20.48-148.48-99.84-148.48-192 0-104.96 0-197.12-84.48-263.68-38.4-35.84-64-84.48-64-133.12h691.2c0 48.64-25.6 97.28-64 133.12-84.48 64-84.48 158.72-84.48 263.68 0 92.16-64 168.96-148.48 192 0 2.56 2.56 5.12 2.56 5.12-5.12 28.16-25.6 48.64-53.76 48.64v0z" />
<glyph unicode="&#xe60e;" glyph-name="pin" d="M570.88 168.96l-171.52 92.16-153.6-248.32-115.2-76.8 20.48 128 151.040 248.32-174.080 94.72c0 0 46.080 97.28 133.12 112.64 30.72 7.68 107.52 15.36 117.76 30.72 12.8 17.92 145.92 209.92 156.16 227.84 15.36 17.92-33.28 74.24-40.96 107.52-5.12 25.6 15.36 48.64 25.6 61.44 7.68 7.68 7.68 12.8 7.68 12.8l368.64-197.12c0 0 0-2.56-7.68-15.36s-17.92-40.96-46.080-48.64c-35.84-15.36-110.080-7.68-120.32-23.040-12.8-17.92-130.56-220.16-140.8-238.080-7.68-15.36 20.48-87.040 28.16-110.080 38.4-69.12-38.4-158.72-38.4-158.72z" />
<glyph unicode="&#xe60f;" glyph-name="plus" d="M906.24 527.36h-314.88v314.88h-158.72v-314.88h-314.88v-158.72h314.88v-314.88h158.72v314.88h314.88z" />
<glyph unicode="&#xe610;" glyph-name="project" d="M942.080 133.12c-38.4 99.84-104.96 122.88-158.72 133.12-43.52 7.68-99.84 23.040-120.32 33.28 0 7.68 0 25.6 0 53.76 0 0 2.56 2.56 2.56 2.56v0c25.6 33.28 38.4 66.56 43.52 87.040 17.92 12.8 35.84 33.28 46.080 76.8 5.12 25.6 10.24 56.32-7.68 79.36 0 0 0 0-2.56 2.56 17.92 161.28-89.6 240.64-151.040 263.68v0 0c-23.040 7.68-46.080 10.24-66.56 10.24-5.12 0-10.24 0-15.36 0s-10.24 0-12.8 0c-20.48 0-43.52-2.56-66.56-10.24v0 0c-61.44-20.48-168.96-102.4-151.040-263.68 0 0 0 0-2.56-2.56-23.040-15.36-17.92-48.64-12.8-74.24 10.24-43.52 28.16-66.56 46.080-76.8 5.12-20.48 17.92-53.76 43.52-87.040v0c0 0 0 0 0 0 2.56-2.56 2.56-2.56 5.12-5.12 2.56-28.16 2.56-43.52 0-53.76-20.48-10.24-74.24-25.6-120.32-33.28-53.76-10.24-120.32-33.28-158.72-133.12-7.68-17.92-5.12-35.84 7.68-51.2 40.96-56.32 250.88-69.12 422.4-69.12s381.44 12.8 422.4 69.12c10.24 15.36 12.8 33.28 7.68 48.64z" />
<glyph unicode="&#xe611;" glyph-name="property" d="M225.28 350.72v-243.2c0-30.72 20.48-53.76 46.080-53.76h488.96c25.6 0 46.080 23.040 46.080 53.76v243.2c-120.32 115.2-299.52 286.72-299.52 286.72s-202.24-202.24-281.6-286.72zM936.96 437.76l-389.12 391.68c-10.24 10.24-23.040 12.8-35.84 12.8 0 0 0 0 0 0s0 0 0 0c-12.8 0-25.6-5.12-35.84-12.8l-120.32-122.88v79.36c0 23.040-17.92 40.96-40.96 40.96h-51.2c-23.040 0-40.96-17.92-40.96-40.96v-192c0-5.12 0-10.24 2.56-15.36l-140.8-143.36c-20.48-20.48-17.92-53.76 5.12-74.24 23.040-23.040 56.32-23.040 74.24-5.12l348.16 350.72 345.6-348.16c20.48-20.48 53.76-17.92 74.24 5.12 23.040 20.48 25.6 53.76 5.12 74.24z" />
<glyph unicode="&#xe612;" glyph-name="settings" d="M476.16 729.6h445.44c12.8 0 20.48 7.68 20.48 17.92s-10.24 17.92-20.48 17.92h-445.44c-12.8 0-20.48-7.68-20.48-17.92 0-7.68 10.24-17.92 20.48-17.92zM99.84 716.8h97.28c10.24-48.64 51.2-84.48 102.4-84.48 58.88 0 104.96 46.080 104.96 104.96s-46.080 104.96-104.96 104.96c-51.2 0-94.72-35.84-102.4-84.48h-97.28c-12.8 0-20.48-10.24-20.48-20.48s10.24-20.48 20.48-20.48zM299.52 801.28c35.84 0 64-28.16 64-64s-28.16-64-64-64c-35.84 0-64 28.16-64 64 2.56 35.84 30.72 64 64 64zM924.16 453.12h-125.44c-12.8 0-20.48-10.24-20.48-20.48 0-12.8 10.24-20.48 20.48-20.48h125.44c12.8 0 20.48 10.24 20.48 20.48s-10.24 20.48-20.48 20.48zM721.92 432.64c0 58.88-48.64 104.96-104.96 104.96-51.2 0-94.72-35.84-102.4-84.48h-414.72c-12.8 0-20.48-10.24-20.48-20.48 0-12.8 10.24-20.48 20.48-20.48h414.72c10.24-48.64 51.2-84.48 102.4-84.48 58.88 0 104.96 46.080 104.96 104.96zM552.96 432.64c0 35.84 28.16 64 64 64s64-28.16 64-64c0-35.84-28.16-64-64-64-33.28 0-64 28.16-64 64zM924.16 179.2h-348.16c-12.8 0-20.48-10.24-20.48-20.48 0-12.8 10.24-20.48 20.48-20.48h348.16c12.8 0 20.48 10.24 20.48 20.48s-10.24 20.48-20.48 20.48zM396.8 263.68c-51.2 0-94.72-35.84-102.4-84.48h-194.56c-12.8 0-20.48-10.24-20.48-20.48 0-12.8 10.24-20.48 20.48-20.48h192c10.24-48.64 51.2-84.48 102.4-84.48 58.88 0 104.96 46.080 104.96 104.96s-46.080 104.96-102.4 104.96zM396.8 94.72c-35.84 0-64 28.16-64 64s28.16 64 64 64c35.84 0 64-28.16 64-64-2.56-35.84-30.72-64-64-64z" />
<glyph unicode="&#xe613;" glyph-name="remove" d="M143.36 716.8c212.48-212.48 424.96-424.96 637.44-637.44 64-64 163.84 35.84 99.84 99.84-212.48 212.48-424.96 424.96-637.44 637.44-64 64-163.84-35.84-99.84-99.84zM780.8 816.64c-212.48-212.48-424.96-424.96-637.44-637.44-64-64 35.84-163.84 99.84-99.84 212.48 212.48 424.96 424.96 637.44 637.44 64 64-35.84 163.84-99.84 99.84z" />
<glyph unicode="&#xe614;" glyph-name="checked" d="M427.52 120.32c-17.92 0-35.84 7.68-48.64 20.48l-176.64 176.64c-28.16 28.16-28.16 71.68 0 99.84s71.68 28.16 99.84 0l115.2-115.2 296.96 442.88c20.48 33.28 64 40.96 97.28 17.92 33.28-20.48 40.96-64 17.92-97.28l-345.6-514.56c-12.8-17.92-30.72-28.16-51.2-30.72-2.56 0-5.12 0-5.12 0z" />
<glyph unicode="&#xe615;" glyph-name="save_on_disk" d="M896 115.2h-768v248.32h220.16c12.8-79.36 81.92-138.24 163.84-138.24s151.040 61.44 163.84 138.24h220.16v-248.32zM947.2 391.68c0 0 0 0 0 0 0 2.56 0 2.56 0 2.56 0 2.56-2.56 5.12-2.56 5.12v0l-179.2 325.12c-5.12 7.68-12.8 12.8-23.040 12.8h-112.64c-15.36 0-25.6-12.8-25.6-25.6 0-15.36 12.8-25.6 25.6-25.6h97.28l148.48-271.36h-227.84c-15.36 0-25.6-12.8-25.6-25.6 0-61.44-51.2-112.64-112.64-112.64s-112.64 51.2-112.64 112.64c0 15.36-12.8 25.6-25.6 25.6h-225.28l148.48 271.36h97.28c15.36 0 25.6 12.8 25.6 25.6 0 15.36-12.8 25.6-25.6 25.6h-112.64c-10.24 0-17.92-5.12-23.040-12.8l-176.64-322.56c0 0 0 0 0 0s0-2.56-2.56-2.56c0 0 0-2.56 0-2.56s0-2.56 0-2.56c0 0 0-2.56 0-2.56s0-2.56 0-2.56v-299.52c0-15.36 12.8-25.6 25.6-25.6h819.2c15.36 0 25.6 12.8 25.6 25.6v299.52c0 0 0 0 0 2.56zM650.24 552.96l-120.32-120.32c0 0-2.56-2.56-2.56-2.56-2.56-2.56-5.12-2.56-5.12-2.56-2.56 0-2.56-2.56-5.12-2.56s-2.56 0-5.12 0-2.56 0-5.12 0-5.12 0-5.12 2.56c-2.56 0-2.56 2.56-5.12 2.56 0 0-2.56 0-2.56 2.56l-120.32 120.32c-10.24 10.24-10.24 25.6 0 35.84s25.6 10.24 35.84 0l74.24-74.24v302.080c0 15.36 12.8 25.6 25.6 25.6 15.36 0 25.6-12.8 25.6-25.6v-302.080l74.24 74.24c10.24 10.24 25.6 10.24 35.84 0 15.36-10.24 15.36-25.6 5.12-35.84z" />
<glyph unicode="&#xe616;" glyph-name="pen" d="M709.12 816.64c12.8 0 28.16-5.12 40.96-15.36l89.6-81.92c23.040-20.48 25.6-56.32 5.12-76.8l-450.56-491.52c-2.56-5.12-7.68-7.68-10.24-10.24v0h-2.56c-20.48-17.92-74.24-38.4-120.32-51.2-23.040-5.12-46.080-10.24-64-10.24s-28.16 5.12-23.040 2.56c2.56-2.56-2.56 7.68-5.12 28.16 0 20.48 2.56 46.080 7.68 74.24 5.12 25.6 12.8 53.76 20.48 76.8s17.92 38.4 23.040 43.52l2.56 2.56c0 0 0 0 2.56 2.56l445.44 488.96c10.24 12.8 23.040 17.92 38.4 17.92zM706.56 872.96c-28.16-2.56-56.32-12.8-76.8-35.84l-445.44-491.52c0 0 0-2.56-2.56-2.56 0 0 0 0-2.56-2.56v0c-15.36-15.36-25.6-35.84-35.84-61.44s-17.92-56.32-23.040-87.040c-5.12-30.72-7.68-58.88-7.68-84.48s2.56-48.64 23.040-69.12c17.92-17.92 40.96-17.92 64-15.36s48.64 5.12 74.24 12.8c51.2 12.8 104.96 33.28 138.24 61.44v0c0 0 0 0 2.56 2.56 0 0 0 0 0 0 7.68 5.12 12.8 10.24 20.48 17.92l445.44 491.52c40.96 46.080 38.4 115.2-7.68 156.16l-89.6 81.92c-20.48 17.92-48.64 25.6-76.8 25.6zM542.72 706.56v0c-12.8-2.56-15.36-15.36-7.68-23.040l207.36-186.88c5.12-5.12 15.36-5.12 20.48 0s5.12 15.36 0 20.48l-207.36 186.88c-5.12 0-7.68 2.56-12.8 2.56zM215.040 340.48c-17.92-2.56-28.16-12.8-28.16-12.8l17.92-23.040c0 0 7.68 5.12 12.8 7.68 2.56 0 5.12 0 7.68-2.56s7.68-10.24 12.8-23.040l5.12-12.8 12.8 5.12c0 0 15.36 5.12 25.6 2.56 5.12 0 10.24-2.56 12.8-7.68s5.12-12.8 5.12-28.16v-17.92l17.92 2.56c0 0 15.36 2.56 25.6-2.56 5.12-2.56 10.24-5.12 12.8-10.24s5.12-12.8 2.56-25.6l-2.56-15.36 15.36-2.56c0 0 15.36-2.56 25.6-7.68 5.12-2.56 7.68-5.12 10.24-7.68s2.56-7.68-2.56-17.92l25.6-12.8c7.68 15.36 7.68 28.16 2.56 40.96-5.12 10.24-12.8 17.92-23.040 23.040s-15.36 5.12-23.040 5.12c0 12.8 0 23.040-5.12 33.28-7.68 12.8-17.92 17.92-28.16 23.040-7.68 2.56-17.92 2.56-23.040 2.56 0 12.8-5.12 23.040-10.24 30.72-7.68 10.24-20.48 15.36-30.72 17.92-12.8 2.56-20.48 0-28.16 0-5.12 10.24-7.68 20.48-15.36 25.6-10.24 7.68-20.48 10.24-30.72 10.24zM578.56 739.84v0c-12.8-2.56-15.36-15.36-7.68-23.040l158.72-145.92c5.12-5.12 15.36-5.12 20.48 0s5.12 15.36 0 20.48l-161.28 145.92c-2.56 2.56-7.68 2.56-10.24 2.56z" />
<glyph unicode="&#xe617;" glyph-name="note_pen" d="M852.48 760.32l-58.88 58.88 30.72 30.72 58.88-58.88-30.72-30.72zM570.88 481.28l-58.88 56.32 243.2 243.2c0 0 0 0 0 0v0l58.88-58.88-243.2-240.64zM455.68 422.4l28.16 69.12 38.4-38.4-66.56-30.72zM939.52 811.52l-94.72 94.72c-10.24 10.24-28.16 10.24-38.4 0l-15.36-17.92-71.68-71.68-263.68-261.12c0 0-2.56-2.56-2.56-5.12 0 0 0-2.56-2.56-2.56v0l-71.68-166.4c-5.12-10.24-2.56-23.040 5.12-28.16 5.12-5.12 12.8-7.68 17.92-7.68 2.56 0 7.68 0 10.24 2.56l166.4 71.68c2.56 0 2.56 0 5.12 2.56 0 0 0 0 2.56 2.56 0 0 0 0 2.56 2.56l350.72 348.16c5.12 5.12 7.68 12.8 7.68 17.92s-2.56 12.8-7.68 17.92zM450.56 547.84v0 0c0 0 0 0 0 0zM409.6-17.92h-120.32c-15.36 0-28.16 12.8-28.16 28.16s12.8 28.16 28.16 28.16h120.32c35.84 0 66.56 28.16 66.56 66.56 0 35.84-28.16 66.56-66.56 66.56h-212.48c-66.56-5.12-120.32 48.64-120.32 112.64 0 66.56 53.76 120.32 120.32 120.32h71.68c15.36 0 28.16-12.8 28.16-28.16s-12.8-28.16-28.16-28.16h-71.68c-35.84 0-66.56-28.16-66.56-66.56 0-35.84 28.16-66.56 66.56-66.56h212.48c66.56 0 120.32-53.76 120.32-120.32-2.56-61.44-56.32-112.64-120.32-112.64zM757.76 783.36v0c0 0 0 0 0 0z" />
<glyph unicode="&#xe618;" glyph-name="send_email" d="M35.84 509.44l952.32 414.72-238.080-947.2-238.080 174.080-174.080-179.2v304.64l471.040 468.48-632.32-343.040-140.8 107.52z" />
<glyph unicode="&#xe619;" glyph-name="undo" d="M761.862-64c113.726 206.032 132.888 520.306-313.862 509.824v-253.824l-384 384 384 384v-248.372c534.962 13.942 594.57-472.214 313.862-775.628z" />
<glyph unicode="&#xe61a;" glyph-name="map" d="M0 768l320 128v-768l-320-128zM384 928l320-192v-736l-320 160zM768 736l256 192v-768l-256-192z" />
<glyph unicode="&#xe61b;" glyph-name="map2" d="M672 768l-320 128-352-128v-768l352 128 320-128 352 128v768l-352-128zM384 814.27l256-102.4v-630.138l-256 102.398v630.14zM64 723.172l256 93.090v-631.8l-256-93.088v631.798zM960 172.828l-256-93.092v631.8l256 93.090v-631.798z" />
<glyph unicode="&#xe61c;" glyph-name="markers-in-shapes" d="M713.36 526.050c0 110.050-90.249 199.95-203.060 199.95s-203.060-89.9-203.060-199.95c0-110.050 203.060-420.050 203.060-420.050s203.060 310 203.060 420.050zM442.613 522.95c0 37.2 30.62 66.65 67.687 66.65s67.687-29.45 67.687-66.65-30.62-66.65-67.687-66.65c-37.067 0-67.687 29.45-67.687 66.65zM132.758 949.88l-118.274-578.047 344.338-400.090 467.632-23.422 2.283 516.005 186.614 473.95-882.592 11.603zM163.975 905.225l791.256-10.405-165.778-421.027-2.119-479.229-411.139 20.594-318.593 370.178 106.373 519.889z" />
<glyph unicode="&#xe900;" glyph-name="redo2" d="M576 711.628v248.372l384-384-384-384v253.824c-446.75 10.482-427.588-303.792-313.86-509.824-280.712 303.414-221.1 789.57 313.86 775.628z" />
<glyph unicode="&#xe901;" glyph-name="pen2" d="M948.992 884.992c-49.856 50.016-115.36 75.008-180.992 75.008-65.504 0-131.008-24.992-180.992-75.008l-586.016-585.984-0.992-363.008h361.984l587.008 587.008c100 100 100 261.984 0 361.984zM308.992 64h-52.992v128h-127.264l0.128 53.76 548.64 548.736 180.992-180.992-549.504-549.504z" />
<glyph unicode="&#xe902;" glyph-name="pen-alt-stroke" d="M948.992 884.992c-49.984 50.016-115.488 75.008-180.992 75.008s-131.008-24.992-180.992-75.008l-586.016-585.984-0.992-363.008h361.984l587.008 587.008c100 100 100 261.984 0 361.984zM308.992 64h-1.376c49.984 49.984 49.984 132 0 182.016-47.872 47.872-123.488 48.512-173.76 4.736l542.528 542.496 180.992-180.992-548.384-548.256z" />
<glyph unicode="&#xe903;" glyph-name="pen-alt-fill" d="M948.992 884.992c-99.872 100-262.112 100-361.984 0l-586.016-585.984-0.992-363.008h361.984l587.008 587.008c100 100 100 261.984 0 361.984zM307.616 64h-180.992v182.016c49.984 49.984 131.008 49.984 180.992 0s50.016-132.032 0-182.016zM856.128 613.504l-180.992 180.992c49.984 49.984 131.008 49.984 180.992 0s49.984-131.008 0-180.992z" />
<glyph unicode="&#xe904;" glyph-name="pen-alt2" horiz-adv-x="1022" d="M986.466 922.498c-49.982 49.982-131.004 49.982-180.986 0l-483.984-484.144c43.262-11.264 83.262-32.99 115.74-65.502 32.99-32.99 54.014-73.246 65.246-115.484l483.984 484.144c50.014 49.982 50.014 131.002 0 180.986zM346.742 101.37c49.982 49.982 49.982 131.004 0 180.986s-131.004 49.982-180.986 0l-165.756-346.356 346.742 165.37z" />
<glyph unicode="&#xe905;" glyph-name="brush" horiz-adv-x="1022" d="M986.432 922.496c-49.984 49.984-131.008 49.984-180.992 0l-364.8-364.736c84.512-30.112 151.008-96.64 180.992-181.12l364.8 364.864c50.016 49.984 50.016 131.008 0 180.992zM511.872 277.376c0 94.24-76.512 170.624-170.752 170.624s-170.624-76.384-170.624-170.624l0.128-0.128c-0.128-126.24-68.736-236.384-170.624-295.36l0.512-0.64c50.112-28.736 108.128-45.248 170.112-45.248 188.512 0 341.376 152.864 341.376 341.376h-0.128z" />
<glyph unicode="&#xe906;" glyph-name="brush-alt" horiz-adv-x="1022" d="M384 192c0 70.752-57.376 128-128 128-70.752 0-128-57.248-128-128v-0.256c0-94.624-51.488-177.12-128-221.376l0.512-0.384c37.504-21.6 80.992-33.984 127.488-33.984 141.376 0 256 114.624 256 256v0zM986.432 922.496c-49.984 49.984-131.008 49.984-180.992 0l-483.936-484c88.256-23.616 157.504-92.736 180.992-181.12l483.936 484.128c50.016 49.984 50.016 131.008 0 180.992z" />
<glyph unicode="&#xe907;" glyph-name="eyedropper" horiz-adv-x="1022" d="M948.96 522.112c99.872 99.808 99.872 261.76 0 361.504-49.888 49.888-115.36 74.88-180.736 74.88-65.312 0-130.816-24.992-180.672-74.88l-18.88-18.88-95.168 95.264-90.24-90.304 95.264-95.2-478.528-478.816v-231.936l125.76-127.744h237.248l476.832 476.992 92-92.064 90.368 90.24-92.128 92.064 18.88 18.88zM330.24 84.256c1.504 48.512-15.264 97.12-52.128 134.016-33.888 33.984-78.112 50.624-122.624 52.128l413.408 413.536 180.576-180.448-419.232-419.232z" />
<glyph unicode="&#xe908;" glyph-name="text-create" d="M832 899.813v-256l-64 128h-192v-704h128v-64h-384v64h128v704h-192l-64-128v256z" />
<glyph unicode="&#xe909;" glyph-name="android-radio-button-off" d="M512 864c-228.798 0-416-187.202-416-416s187.202-416 416-416 416 187.202 416 416-187.202 416-416 416zM512 115.202c-183.036 0-332.798 149.764-332.798 332.798s149.762 332.8 332.798 332.8 332.8-149.764 332.8-332.8-149.764-332.798-332.8-332.798z" />
<glyph unicode="&#xe90a;" glyph-name="android-checkbox-outline-blank" d="M810.666 746.666v-597.332h-597.332v597.332h597.332zM810.666 832h-597.332c-46.938 0-85.334-38.396-85.334-85.334v-597.332c0-46.938 38.396-85.334 85.334-85.334h597.332c46.938 0 85.334 38.396 85.334 85.334v597.332c0 46.938-38.396 85.334-85.334 85.334v0z" />
<glyph unicode="&#xe90b;" glyph-name="polygon" d="M512 952.877l-502.125-398.253 223.875-602.624h556.5l223.875 602.624-502.125 398.253zM512 871.123l425.875-337.747-192.125-517.376h-467.5l-192.125 517.376 425.875 337.747z" />
<glyph unicode="&#xe90c;" glyph-name="line" d="M667.287 666.809l-370.801-350.344 68.678-72.688 370.801 350.344-68.678 72.688zM-1.287 315.447v-382.268h382.268v382.268h-382.268zM98.713 215.447h182.268v-182.268h-182.268v182.268zM643.020 962.82v-382.268h382.268v382.268h-382.268zM743.020 862.82h182.268v-182.268h-182.268v182.268z" />
<glyph unicode="&#xe90d;" glyph-name="hatch_polygon7" d="M200.691 858.864c0-54.983-44.573-99.556-99.556-99.556s-99.556 44.573-99.556 99.556c0 54.983 44.573 99.556 99.556 99.556s99.556-44.573 99.556-99.556zM1022.42 858.864c0-54.983-44.573-99.556-99.556-99.556s-99.556 44.573-99.556 99.556c0 54.983 44.573 99.556 99.556 99.556s99.556-44.573 99.556-99.556zM1022.42 37.136c0-54.983-44.573-99.556-99.556-99.556s-99.556 44.573-99.556 99.556c0 54.983 44.573 99.556 99.556 99.556s99.556-44.573 99.556-99.556zM200.691 37.136c0-54.983-44.573-99.556-99.556-99.556s-99.556 44.573-99.556 99.556c0 54.983 44.573 99.556 99.556 99.556s99.556-44.573 99.556-99.556zM101.136 858.864v-821.728h821.728v821.728h-821.728zM188.049 770.37h153.284l-153.284-151.704v151.704zM188.049 512.79l262.321 257.58h181.728l-445.63-442.469v184.889zM834.37 124.049h-142.222l142.222 142.222v-142.222zM834.37 373.728l-249.679-249.679h-183.309l432.988 431.407v-181.728zM834.37 680.296l-556.247-556.247h-90.074v82.173l567.309 564.148h79.012v-90.074z" />
<glyph unicode="&#xe90e;" d="M1024 448c0-282.77-229.23-512-512-512s-512 229.23-512 512c0 282.77 229.23 512 512 512s512-229.23 512-512z" />
<glyph unicode="&#xe90f;" d="M500.133 777.96c-139.751 0-253.044-113.293-253.044-253.055s253.044-433.003 253.044-433.003 253.044 293.24 253.044 433.003-113.282 253.055-253.044 253.055zM498.428 427.73c-63.078 0-114.212 51.145-114.212 114.212 0 63.089 51.134 114.223 114.212 114.223s114.212-51.134 114.212-114.223c0-63.067-51.134-114.212-114.212-114.212z" />
<glyph unicode="&#xea31;" glyph-name="arrow-up-left" d="M0 224l256 256 544-544 224 224-544 544 255.998 256h-735.998v-736z" />
<glyph unicode="&#xea32;" glyph-name="arrow-up" d="M512 928l-480-480h288v-512h384v512h288z" />
<glyph unicode="&#xea33;" glyph-name="arrow-up-right" d="M288 960l256-256-544-544 224-224 544 544 256-255.998v735.998h-736z" />
<glyph unicode="&#xea34;" glyph-name="arrow-right" d="M992 448l-480 480v-288h-512v-384h512v-288z" />
<glyph unicode="&#xea35;" glyph-name="arrow-down-right" d="M1024 672l-256-256-544 544-224-224 544-544-255.998-256h735.998v736z" />
<glyph unicode="&#xea36;" glyph-name="arrow-down" d="M512-32l480 480h-288v512h-384v-512h-288z" />
<glyph unicode="&#xea37;" glyph-name="arrow-down-left" d="M736-64l-256 256 544 544-224 224-544-544-256 255.998v-735.998h736z" />
<glyph unicode="&#xea38;" glyph-name="arrow-left" d="M32 448l480-480v288h512v384h-512v288z" />
</font>
</defs>
</svg>
