<svg class="ml-arrow-svg" viewBox="0 0 512 512" enable-background="new 0 0 512 512" ><path d="M256,50c-93.061,0-168.5,75.439-168.5,168.5C87.5,313,169.43,375.333,256,462  c86.57-86.667,168.5-149,168.5-243.5C424.5,125.439,349.061,50,256,50z M276,335.339v-56.838h-40v56.838  c-52.199-8.492-93.42-49.669-101.979-101.846h56.971v-40h-57.023C142.411,141.164,183.694,99.838,236,91.328v57.157h40V91.328  c52.307,8.51,93.59,49.836,102.032,102.165h-57.024v40h56.972C369.421,285.67,328.2,326.847,276,335.339z"/></svg>