<svg viewBox="70 200 570 570" enable-background="new 0 0 512 512">
 <g id="layer1">
  <path id="path3051" d="m553.21,636.32-109.08-109.07c15.95-25.137,25.2-54.923,25.2-86.833,0.001-89.623-72.913-162.54-162.54-162.54-89.623,0-162.54,72.914-162.54,162.54,0,89.623,72.914,162.54,162.54,162.54,30.325,0,58.732-8.356,83.055-22.876l109.8,109.8zm-364.16-195.9c0-64.927,52.819-117.75,117.75-117.75,64.926,0,117.75,52.821,117.75,117.75,0,64.926-52.822,117.75-117.75,117.75-64.926,0-117.75-52.821-117.75-117.75z"/>
  <rect id="rect3060" opacity="0" ry="0.93643" height="270.72" width="347.49" y="248.28" x="24.244" stroke-width="7.9"/>
  <rect id="rect3830" opacity="0" ry="0.93643" height="254.56" width="327.29" y="226.06" x="52.528" stroke-width="7.9"/>
  <rect id="rect3840" opacity="0" ry="0.93643" height="290.92" width="379.82" y="185.65" x="54.548" stroke-width="7.9"/>
  <rect id="rect3842" stroke-linejoin="miter" stroke-dashoffset="88.65999832" ry="1.3612" height="508.04" width="538.35" stroke="#000" stroke-dasharray="80.59999847,80.59999847" stroke-miterlimit="2.9" y="227.6" x="74.278" stroke-width="40.3" fill="none"/>
 </g>
</svg>
